<svg width="321" height="125" viewBox="0 0 321 125" fill="none" xmlns="http://www.w3.org/2000/svg">
<path d="M48.4848 61.9697H0V86.2121H48.4848V61.9697Z" fill="#EBD381"/>
<path d="M100 61.9697H51.5153V86.2121H100V61.9697Z" fill="#F8BD36"/>
<path d="M63.6363 86.2122H36.3636V110.455H63.6363V86.2122Z" fill="#EBD381"/>
<path d="M63.6363 86.2122H50V110.455H63.6363V86.2122Z" fill="#F8BD36"/>
<path d="M90.909 46.8181H9.09082V101.364H90.909V46.8181Z" fill="#EBD381"/>
<path d="M90.9092 46.8181H50V101.364H90.9092V46.8181Z" fill="#EBD381"/>
<path d="M37.8787 68.0303C37.8787 71.3775 35.1651 74.0908 31.8182 74.0908C28.4713 74.0908 25.7576 71.3775 25.7576 68.0303C25.7576 64.683 28.4713 61.9697 31.8182 61.9697C35.1652 61.9697 37.8787 64.683 37.8787 68.0303Z" fill="#333333"/>
<path d="M74.2424 68.0303C74.2424 71.3775 71.5287 74.0908 68.1818 74.0908C64.8348 74.0908 62.1213 71.3775 62.1213 68.0303C62.1213 64.683 64.8349 61.9697 68.1818 61.9697C71.5287 61.9697 74.2424 64.683 74.2424 68.0303Z" fill="#333333"/>
<path d="M36.3636 83.1819C36.3636 90.7127 42.4687 96.8182 50 96.8182C57.5308 96.8182 63.6363 90.7127 63.6363 83.1819H36.3636Z" fill="#333333"/>
<path d="M50 83.1819C50 90.7127 50 92.2727 50 96.8182C57.5309 96.8182 63.6363 90.7127 63.6363 83.1819H50Z" fill="#333333"/>
<g clip-path="url(#clip0_80_1199)">
<path fill-rule="evenodd" clip-rule="evenodd" d="M73.4519 80.7993C68.8607 85.6169 65.3724 84.2993 59.646 78.9493C54.9077 74.5287 51.0166 77.2434 50.0754 81.0522C49.1224 77.2375 45.2283 74.5287 40.493 78.9581C34.7783 84.314 31.2901 85.6375 26.696 80.8287C26.2401 85.6699 31.1489 90.2052 37.6519 90.9493C43.6783 91.6375 48.9636 88.8346 50.0783 84.5728C51.2048 88.8405 56.4872 91.6346 62.5166 90.9346C69.0136 90.1787 73.9136 85.6434 73.4519 80.7993Z" fill="#333333"/>
</g>
<path d="M37.0834 30.3833H38.6459C38.6459 29.7623 38.2781 29.2 37.709 28.9514L37.0834 30.3833ZM66.25 30.3833L65.6244 28.9514C65.0553 29.2 64.6875 29.7623 64.6875 30.3833H66.25ZM59.4792 14.5833C59.4792 15.4462 60.1788 16.1458 61.0417 16.1458C61.9046 16.1458 62.6042 15.4462 62.6042 14.5833H59.4792ZM40.7292 14.5833C40.7292 15.4462 41.4288 16.1458 42.2917 16.1458C43.1546 16.1458 43.8542 15.4462 43.8542 14.5833H40.7292ZM55.8334 44.2708C54.9705 44.2708 54.2709 44.9704 54.2709 45.8333C54.2709 46.6962 54.9705 47.3958 55.8334 47.3958V44.2708ZM47.5 47.3958C48.363 47.3958 49.0625 46.6962 49.0625 45.8333C49.0625 44.9704 48.363 44.2708 47.5 44.2708V47.3958ZM41.25 8.85413C34.6341 8.85413 29.2709 14.2174 29.2709 20.8333H32.3959C32.3959 15.9433 36.36 11.9791 41.25 11.9791V8.85413ZM62.0834 11.9791C66.9734 11.9791 70.9375 15.9433 70.9375 20.8333H74.0625C74.0625 14.2174 68.6992 8.85413 62.0834 8.85413V11.9791ZM45.4167 44.2708C43.4084 44.2708 42.0593 44.2675 41.0529 44.1323C40.0916 44.0029 39.6801 43.7795 39.4086 43.5081L37.1989 45.7177C38.1478 46.6666 39.3286 47.0535 40.6365 47.2293C41.8995 47.3991 43.4967 47.3958 45.4167 47.3958V44.2708ZM35.5209 37.5C35.5209 39.42 35.5176 41.0173 35.6874 42.2802C35.8632 43.5881 36.25 44.7689 37.1989 45.7177L39.4086 43.5081C39.1371 43.2366 38.9137 42.8252 38.7845 41.8637C38.6492 40.8575 38.6459 39.5083 38.6459 37.5H35.5209ZM64.6875 37.5C64.6875 39.5083 64.6842 40.8575 64.549 41.8637C64.4196 42.8252 64.1963 43.2366 63.9248 43.5081L66.1344 45.7177C67.0834 44.7689 67.4702 43.5881 67.6461 42.2802C67.8159 41.0173 67.8125 39.42 67.8125 37.5H64.6875ZM57.9167 47.3958C59.8367 47.3958 61.434 47.3991 62.6969 47.2293C64.0048 47.0535 65.1857 46.6666 66.1344 45.7177L63.9248 43.5081C63.6534 43.7795 63.2419 44.0029 62.2805 44.1323C61.2742 44.2675 59.925 44.2708 57.9167 44.2708V47.3958ZM41.25 11.9791C41.6952 11.9791 42.1318 12.0119 42.5577 12.0748L43.0147 8.9834C42.438 8.89817 41.8487 8.85413 41.25 8.85413V11.9791ZM51.6667 2.60413C46.8531 2.60413 42.7697 5.71267 41.3065 10.0273L44.2659 11.0309C45.3121 7.94583 48.2325 5.72913 51.6667 5.72913V2.60413ZM41.3065 10.0273C40.9318 11.1323 40.7292 12.3149 40.7292 13.5416H43.8542C43.8542 12.6607 43.9994 11.8169 44.2659 11.0309L41.3065 10.0273ZM62.0834 8.85413C61.4848 8.85413 60.8955 8.89817 60.3188 8.9834L60.7757 12.0748C61.2015 12.0119 61.6382 11.9791 62.0834 11.9791V8.85413ZM51.6667 5.72913C55.1009 5.72913 58.0213 7.94583 59.0675 11.0309L62.0269 10.0273C60.5638 5.71267 56.4803 2.60413 51.6667 2.60413V5.72913ZM59.0675 11.0309C59.334 11.8169 59.4792 12.6607 59.4792 13.5416H62.6042C62.6042 12.3149 62.4017 11.1323 62.0269 10.0273L59.0675 11.0309ZM38.6459 37.5V30.3833H35.5209V37.5H38.6459ZM37.709 28.9514C34.5786 27.5837 32.3959 24.4616 32.3959 20.8333H29.2709C29.2709 25.7479 32.2302 29.9679 36.4578 31.815L37.709 28.9514ZM64.6875 30.3833V37.5H67.8125V30.3833H64.6875ZM70.9375 20.8333C70.9375 24.4616 68.7548 27.5837 65.6244 28.9514L66.8757 31.815C71.1032 29.9679 74.0625 25.7479 74.0625 20.8333H70.9375ZM59.4792 13.5416V14.5833H62.6042V13.5416H59.4792ZM40.7292 13.5416V14.5833H43.8542V13.5416H40.7292ZM57.9167 44.2708H55.8334V47.3958H57.9167V44.2708ZM47.5 44.2708H45.4167V47.3958H47.5V44.2708Z" fill="#818FEB"/>
<path d="M37.0834 37.5H53.75H37.0834ZM66.25 37.5H62.0834H66.25Z" fill="#818FEB"/>
<path d="M37.0834 37.5H53.75M66.25 37.5H62.0834" stroke="#818FEB" stroke-width="2" stroke-linecap="round" stroke-linejoin="round"/>
<path d="M170.008 21C172.088 21 174.028 21.6 175.828 22.8C177.668 24 179.148 25.62 180.268 27.66C181.388 29.7 181.948 31.98 181.948 34.5C181.948 36.98 181.388 39.24 180.268 41.28C179.148 43.32 177.668 44.96 175.828 46.2C174.028 47.4 172.088 48 170.008 48H158.968L159.568 46.92V59.34C159.568 60.38 159.248 61.26 158.608 61.98C157.968 62.66 157.128 63 156.088 63C155.088 63 154.268 62.66 153.628 61.98C152.988 61.26 152.668 60.38 152.668 59.34V24.66C152.668 23.62 153.008 22.76 153.688 22.08C154.408 21.36 155.288 21 156.328 21H170.008ZM170.008 41.16C170.768 41.16 171.508 40.84 172.228 40.2C172.948 39.56 173.548 38.74 174.028 37.74C174.508 36.7 174.748 35.62 174.748 34.5C174.748 33.34 174.508 32.26 174.028 31.26C173.548 30.26 172.948 29.46 172.228 28.86C171.508 28.22 170.768 27.9 170.008 27.9H158.848L159.568 26.82V42.12L158.908 41.16H170.008ZM195 59.34C195 60.38 194.66 61.26 193.98 61.98C193.3 62.66 192.44 63 191.4 63C190.36 63 189.5 62.66 188.82 61.98C188.14 61.26 187.8 60.38 187.8 59.34V34.56C187.8 33.52 188.14 32.66 188.82 31.98C189.5 31.26 190.36 30.9 191.4 30.9C192.44 30.9 193.3 31.26 193.98 31.98C194.66 32.66 195 33.52 195 34.56V59.34ZM191.34 27C189.98 27 189.02 26.78 188.46 26.34C187.9 25.9 187.62 25.12 187.62 24V22.86C187.62 21.7 187.92 20.92 188.52 20.52C189.16 20.08 190.12 19.86 191.4 19.86C192.8 19.86 193.78 20.08 194.34 20.52C194.9 20.96 195.18 21.74 195.18 22.86V24C195.18 25.16 194.88 25.96 194.28 26.4C193.68 26.8 192.7 27 191.34 27ZM216.68 30.3C218.96 30.3 220.94 30.54 222.62 31.02C224.34 31.5 225.66 32.18 226.58 33.06C227.54 33.9 228.02 34.92 228.02 36.12C228.02 36.92 227.78 37.68 227.3 38.4C226.82 39.08 226.12 39.42 225.2 39.42C224.56 39.42 224.02 39.34 223.58 39.18C223.18 38.98 222.82 38.74 222.5 38.46C222.18 38.18 221.8 37.92 221.36 37.68C220.96 37.44 220.34 37.26 219.5 37.14C218.7 36.98 218.1 36.9 217.7 36.9C215.66 36.9 213.92 37.34 212.48 38.22C211.08 39.1 210 40.3 209.24 41.82C208.48 43.3 208.1 45.02 208.1 46.98C208.1 48.9 208.48 50.62 209.24 52.14C210.04 53.62 211.12 54.8 212.48 55.68C213.88 56.56 215.48 57 217.28 57C218.28 57 219.14 56.94 219.86 56.82C220.58 56.7 221.18 56.52 221.66 56.28C222.22 55.96 222.72 55.62 223.16 55.26C223.6 54.9 224.26 54.72 225.14 54.72C226.18 54.72 226.98 55.06 227.54 55.74C228.1 56.38 228.38 57.18 228.38 58.14C228.38 59.14 227.82 60.06 226.7 60.9C225.58 61.7 224.1 62.36 222.26 62.88C220.46 63.36 218.5 63.6 216.38 63.6C213.22 63.6 210.48 62.88 208.16 61.44C205.84 59.96 204.04 57.96 202.76 55.44C201.52 52.92 200.9 50.1 200.9 46.98C200.9 43.7 201.56 40.82 202.88 38.34C204.24 35.82 206.1 33.86 208.46 32.46C210.86 31.02 213.6 30.3 216.68 30.3ZM237.772 63C236.732 63 235.872 62.66 235.192 61.98C234.512 61.26 234.172 60.38 234.172 59.34V22.26C234.172 21.22 234.512 20.36 235.192 19.68C235.872 18.96 236.732 18.6 237.772 18.6C238.812 18.6 239.672 18.96 240.352 19.68C241.032 20.36 241.372 21.22 241.372 22.26V59.34C241.372 60.38 241.032 61.26 240.352 61.98C239.672 62.66 238.812 63 237.772 63ZM256.852 30.9C257.772 30.9 258.572 31.28 259.252 32.04C259.932 32.8 260.272 33.54 260.272 34.26C260.272 35.22 259.792 36.12 258.832 36.96L240.772 53.58L240.472 45.3L254.212 32.04C254.972 31.28 255.852 30.9 256.852 30.9ZM257.752 62.94C256.712 62.94 255.832 62.54 255.112 61.74L244.012 49.98L249.472 44.94L260.272 56.7C261.032 57.5 261.412 58.4 261.412 59.4C261.412 60.44 260.992 61.3 260.152 61.98C259.352 62.62 258.552 62.94 257.752 62.94Z" fill="#818FEB"/>
<path d="M196.186 71C198.266 71 200.206 71.6 202.006 72.8C203.846 74 205.326 75.62 206.446 77.66C207.566 79.7 208.126 81.98 208.126 84.5C208.126 86.98 207.566 89.24 206.446 91.28C205.326 93.32 203.846 94.96 202.006 96.2C200.206 97.4 198.266 98 196.186 98H185.146L185.746 96.92V109.34C185.746 110.38 185.426 111.26 184.786 111.98C184.146 112.66 183.306 113 182.266 113C181.266 113 180.446 112.66 179.806 111.98C179.166 111.26 178.846 110.38 178.846 109.34V74.66C178.846 73.62 179.186 72.76 179.866 72.08C180.586 71.36 181.466 71 182.506 71H196.186ZM196.186 91.16C196.946 91.16 197.686 90.84 198.406 90.2C199.126 89.56 199.726 88.74 200.206 87.74C200.686 86.7 200.926 85.62 200.926 84.5C200.926 83.34 200.686 82.26 200.206 81.26C199.726 80.26 199.126 79.46 198.406 78.86C197.686 78.22 196.946 77.9 196.186 77.9H185.026L185.746 76.82V92.12L185.086 91.16H196.186ZM228.932 113.6C225.532 113.6 222.572 112.9 220.052 111.5C217.572 110.06 215.652 108.12 214.292 105.68C212.972 103.24 212.312 100.48 212.312 97.4C212.312 93.8 213.032 90.74 214.472 88.22C215.952 85.66 217.872 83.7 220.232 82.34C222.592 80.98 225.092 80.3 227.732 80.3C229.772 80.3 231.692 80.72 233.492 81.56C235.332 82.4 236.952 83.56 238.352 85.04C239.752 86.48 240.852 88.16 241.652 90.08C242.492 92 242.912 94.04 242.912 96.2C242.872 97.16 242.492 97.94 241.772 98.54C241.052 99.14 240.212 99.44 239.252 99.44H216.332L214.532 93.44H236.552L235.232 94.64V93.02C235.152 91.86 234.732 90.82 233.972 89.9C233.252 88.98 232.332 88.26 231.212 87.74C230.132 87.18 228.972 86.9 227.732 86.9C226.532 86.9 225.412 87.06 224.372 87.38C223.332 87.7 222.432 88.24 221.672 89C220.912 89.76 220.312 90.78 219.872 92.06C219.432 93.34 219.212 94.96 219.212 96.92C219.212 99.08 219.652 100.92 220.532 102.44C221.452 103.92 222.612 105.06 224.012 105.86C225.452 106.62 226.972 107 228.572 107C230.052 107 231.232 106.88 232.112 106.64C232.992 106.4 233.692 106.12 234.212 105.8C234.772 105.44 235.272 105.14 235.712 104.9C236.432 104.54 237.112 104.36 237.752 104.36C238.632 104.36 239.352 104.66 239.912 105.26C240.512 105.86 240.812 106.56 240.812 107.36C240.812 108.44 240.252 109.42 239.132 110.3C238.092 111.18 236.632 111.96 234.752 112.64C232.872 113.28 230.932 113.6 228.932 113.6ZM262.23 80.3C263.91 80.3 265.45 80.56 266.85 81.08C268.25 81.6 269.45 82.26 270.45 83.06C271.49 83.86 272.29 84.68 272.85 85.52C273.45 86.32 273.75 87 273.75 87.56L272.19 88.34V83.96C272.19 82.92 272.53 82.06 273.21 81.38C273.89 80.66 274.75 80.3 275.79 80.3C276.83 80.3 277.69 80.64 278.37 81.32C279.05 82 279.39 82.88 279.39 83.96V110.66C279.39 114.14 278.63 116.92 277.11 119C275.63 121.12 273.67 122.64 271.23 123.56C268.79 124.52 266.17 125 263.37 125C262.57 125 261.53 124.9 260.25 124.7C258.97 124.5 257.75 124.26 256.59 123.98C255.43 123.7 254.55 123.44 253.95 123.2C252.75 122.68 251.91 122.02 251.43 121.22C250.99 120.46 250.91 119.64 251.19 118.76C251.55 117.6 252.13 116.8 252.93 116.36C253.73 115.96 254.57 115.92 255.45 116.24C255.85 116.36 256.51 116.6 257.43 116.96C258.35 117.32 259.35 117.64 260.43 117.92C261.55 118.24 262.53 118.4 263.37 118.4C266.37 118.4 268.59 117.8 270.03 116.6C271.47 115.4 272.19 113.74 272.19 111.62V106.4L272.91 106.94C272.91 107.46 272.63 108.1 272.07 108.86C271.55 109.58 270.81 110.3 269.85 111.02C268.93 111.74 267.83 112.36 266.55 112.88C265.27 113.36 263.91 113.6 262.47 113.6C259.63 113.6 257.07 112.9 254.79 111.5C252.51 110.06 250.71 108.1 249.39 105.62C248.07 103.1 247.41 100.22 247.41 96.98C247.41 93.7 248.07 90.82 249.39 88.34C250.71 85.82 252.49 83.86 254.73 82.46C256.97 81.02 259.47 80.3 262.23 80.3ZM263.37 86.9C261.57 86.9 259.99 87.34 258.63 88.22C257.27 89.1 256.21 90.3 255.45 91.82C254.69 93.34 254.31 95.06 254.31 96.98C254.31 98.86 254.69 100.56 255.45 102.08C256.21 103.6 257.27 104.8 258.63 105.68C259.99 106.56 261.57 107 263.37 107C265.21 107 266.81 106.56 268.17 105.68C269.53 104.8 270.59 103.6 271.35 102.08C272.11 100.56 272.49 98.86 272.49 96.98C272.49 95.06 272.11 93.34 271.35 91.82C270.59 90.3 269.53 89.1 268.17 88.22C266.81 87.34 265.21 86.9 263.37 86.9ZM313.159 80.3C314.199 80.3 315.059 80.64 315.739 81.32C316.419 82 316.759 82.88 316.759 83.96V109.34C316.759 110.38 316.419 111.26 315.739 111.98C315.059 112.66 314.199 113 313.159 113C312.119 113 311.259 112.66 310.579 111.98C309.899 111.26 309.559 110.38 309.559 109.34V106.4L310.879 106.94C310.879 107.46 310.599 108.1 310.039 108.86C309.479 109.58 308.719 110.3 307.759 111.02C306.799 111.74 305.659 112.36 304.339 112.88C303.059 113.36 301.659 113.6 300.139 113.6C297.379 113.6 294.879 112.9 292.639 111.5C290.399 110.06 288.619 108.1 287.299 105.62C286.019 103.1 285.379 100.22 285.379 96.98C285.379 93.7 286.019 90.82 287.299 88.34C288.619 85.82 290.379 83.86 292.579 82.46C294.779 81.02 297.219 80.3 299.899 80.3C301.619 80.3 303.199 80.56 304.639 81.08C306.079 81.6 307.319 82.26 308.359 83.06C309.439 83.86 310.259 84.68 310.819 85.52C311.419 86.32 311.719 87 311.719 87.56L309.559 88.34V83.96C309.559 82.92 309.899 82.06 310.579 81.38C311.259 80.66 312.119 80.3 313.159 80.3ZM301.039 107C302.799 107 304.339 106.56 305.659 105.68C306.979 104.8 307.999 103.6 308.719 102.08C309.479 100.56 309.859 98.86 309.859 96.98C309.859 95.06 309.479 93.34 308.719 91.82C307.999 90.3 306.979 89.1 305.659 88.22C304.339 87.34 302.799 86.9 301.039 86.9C299.319 86.9 297.799 87.34 296.479 88.22C295.159 89.1 294.119 90.3 293.359 91.82C292.639 93.34 292.279 95.06 292.279 96.98C292.279 98.86 292.639 100.56 293.359 102.08C294.119 103.6 295.159 104.8 296.479 105.68C297.799 106.56 299.319 107 301.039 107Z" fill="#F8BD36"/>
<defs>
<clipPath id="clip0_80_1199">
<rect width="50" height="50" fill="white" transform="translate(23.3333 58.3334)"/>
</clipPath>
</defs>
</svg>
